<mxfile host="app.diagrams.net" modified="2023-05-18T14:04:43.433Z" agent="Mozilla/5.0 (Windows NT 10.0; Win64; x64) AppleWebKit/537.36 (KHTML, like Gecko) Chrome/113.0.0.0 Safari/537.36 Edg/113.0.1774.42" etag="4-Dod2EyAq3isbyxe-Pc" version="21.3.2" type="github">
  <diagram name="Page-1" id="AsIgcwSRLIg05d2Hef_l">
    <mxGraphModel dx="1518" dy="684" grid="1" gridSize="10" guides="1" tooltips="1" connect="1" arrows="1" fold="1" page="1" pageScale="1" pageWidth="827" pageHeight="1169" math="0" shadow="0">
      <root>
        <mxCell id="0" />
        <mxCell id="1" parent="0" />
        <mxCell id="NOf18INthAh997Z8gndn-30" value="" style="shape=singleArrow;direction=north;whiteSpace=wrap;html=1;rotation=90;arrowWidth=0.3597703955639332;arrowSize=0.051034398572198256;fillColor=#a6bbc8;fontColor=#FFFFFF;rounded=1;arcSize=4;strokeColor=default;" vertex="1" parent="1">
          <mxGeometry x="340" y="180" width="60" height="300" as="geometry" />
        </mxCell>
        <mxCell id="NOf18INthAh997Z8gndn-31" value="" style="group;verticalAlign=middle;fillColor=#179c7d;strokeColor=default;fontColor=#FFFFFF;rounded=1;arcSize=4;container=0;" vertex="1" connectable="0" parent="1">
          <mxGeometry x="380" y="280" width="120" height="120" as="geometry" />
        </mxCell>
        <mxCell id="NOf18INthAh997Z8gndn-32" value="Introduction" style="rounded=1;whiteSpace=wrap;html=1;arcSize=4;fillColor=#179c7d;fontColor=#FFFFFF;" vertex="1" parent="1">
          <mxGeometry x="150" y="260" width="70" height="140" as="geometry" />
        </mxCell>
        <mxCell id="NOf18INthAh997Z8gndn-33" value="Conclusion" style="rounded=1;whiteSpace=wrap;html=1;arcSize=4;fillColor=#179c7d;fontColor=#FFFFFF;" vertex="1" parent="1">
          <mxGeometry x="520" y="260" width="70" height="140" as="geometry" />
        </mxCell>
        <mxCell id="NOf18INthAh997Z8gndn-34" value="" style="rounded=1;whiteSpace=wrap;html=1;fillColor=#179c7d;fontColor=#FFFFFF;arcSize=4;" vertex="1" parent="1">
          <mxGeometry x="240" y="260" width="120" height="140" as="geometry" />
        </mxCell>
        <mxCell id="NOf18INthAh997Z8gndn-35" value="ML and DL Fundamentals" style="rounded=1;whiteSpace=wrap;html=1;fillColor=default;fontColor=default;arcSize=4;" vertex="1" parent="1">
          <mxGeometry x="250" y="290" width="100" height="40" as="geometry" />
        </mxCell>
        <mxCell id="NOf18INthAh997Z8gndn-36" value="Deep Generative Models" style="rounded=1;whiteSpace=wrap;html=1;fillColor=default;fontColor=default;arcSize=4;" vertex="1" parent="1">
          <mxGeometry x="250" y="350" width="100" height="40" as="geometry" />
        </mxCell>
        <mxCell id="NOf18INthAh997Z8gndn-37" value="&lt;h1 style=&quot;font-size: 16px;&quot;&gt;&lt;font style=&quot;font-size: 16px;&quot;&gt;1&lt;/font&gt;&lt;/h1&gt;" style="text;html=1;strokeColor=none;fillColor=none;spacing=5;spacingTop=-20;whiteSpace=wrap;overflow=hidden;rounded=0;verticalAlign=top;fontSize=16;fontColor=#333333;" vertex="1" parent="1">
          <mxGeometry x="175" y="241" width="20" height="20" as="geometry" />
        </mxCell>
        <mxCell id="NOf18INthAh997Z8gndn-38" value="&lt;h1 style=&quot;font-size: 16px;&quot;&gt;&lt;font style=&quot;font-size: 16px;&quot;&gt;2&lt;/font&gt;&lt;/h1&gt;" style="text;html=1;strokeColor=none;fillColor=none;spacing=5;spacingTop=-20;whiteSpace=wrap;overflow=hidden;rounded=0;verticalAlign=top;fontSize=16;fontColor=#333333;" vertex="1" parent="1">
          <mxGeometry x="290" y="241" width="20" height="20" as="geometry" />
        </mxCell>
        <mxCell id="NOf18INthAh997Z8gndn-39" value="&lt;h1 style=&quot;font-size: 16px;&quot;&gt;&lt;font style=&quot;font-size: 16px;&quot;&gt;3 - 5&lt;/font&gt;&lt;/h1&gt;" style="text;html=1;strokeColor=none;fillColor=none;spacing=5;spacingTop=-20;whiteSpace=wrap;overflow=hidden;rounded=0;verticalAlign=top;fontSize=16;fontColor=#333333;" vertex="1" parent="1">
          <mxGeometry x="417.5" y="241" width="45" height="20" as="geometry" />
        </mxCell>
        <mxCell id="NOf18INthAh997Z8gndn-40" value="&lt;h1 style=&quot;font-size: 16px;&quot;&gt;&lt;font style=&quot;font-size: 16px;&quot;&gt;6&lt;/font&gt;&lt;/h1&gt;" style="text;html=1;strokeColor=none;fillColor=none;spacing=5;spacingTop=-20;whiteSpace=wrap;overflow=hidden;rounded=0;verticalAlign=top;fontSize=16;fontColor=#333333;" vertex="1" parent="1">
          <mxGeometry x="546.25" y="241" width="17.5" height="20" as="geometry" />
        </mxCell>
        <mxCell id="NOf18INthAh997Z8gndn-41" value="" style="rounded=1;whiteSpace=wrap;html=1;fillColor=#179c7d;fontColor=#FFFFFF;arcSize=4;" vertex="1" parent="1">
          <mxGeometry x="380" y="260" width="120" height="140" as="geometry" />
        </mxCell>
        <mxCell id="NOf18INthAh997Z8gndn-42" value="Research Desing" style="rounded=1;whiteSpace=wrap;html=1;fillColor=default;fontColor=default;arcSize=4;" vertex="1" parent="1">
          <mxGeometry x="390" y="290" width="100" height="30" as="geometry" />
        </mxCell>
        <mxCell id="NOf18INthAh997Z8gndn-43" value="Results" style="rounded=1;whiteSpace=wrap;html=1;fillColor=default;fontColor=default;arcSize=4;" vertex="1" parent="1">
          <mxGeometry x="390" y="325" width="100" height="30" as="geometry" />
        </mxCell>
        <mxCell id="NOf18INthAh997Z8gndn-44" value="Discussion" style="rounded=1;whiteSpace=wrap;html=1;fillColor=default;fontColor=default;arcSize=4;" vertex="1" parent="1">
          <mxGeometry x="390" y="360" width="100" height="30" as="geometry" />
        </mxCell>
        <mxCell id="NOf18INthAh997Z8gndn-45" value="&lt;font color=&quot;#ffffff&quot;&gt;Theory&lt;/font&gt;" style="text;html=1;strokeColor=none;fillColor=none;align=center;verticalAlign=middle;whiteSpace=wrap;rounded=0;" vertex="1" parent="1">
          <mxGeometry x="280" y="260" width="40" height="30" as="geometry" />
        </mxCell>
        <mxCell id="NOf18INthAh997Z8gndn-46" value="&lt;font color=&quot;#ffffff&quot;&gt;Implementation&lt;/font&gt;" style="text;html=1;strokeColor=none;fillColor=none;align=center;verticalAlign=middle;whiteSpace=wrap;rounded=0;" vertex="1" parent="1">
          <mxGeometry x="420" y="260" width="40" height="30" as="geometry" />
        </mxCell>
      </root>
    </mxGraphModel>
  </diagram>
</mxfile>
